solid DieBox
  facet normal 1.000000000e+00 0.000000000e+00 0.000000000e+00
    outer loop
      vertex 0.000000000e+00 0.000000000e+00 -4.200000000e-03
      vertex 0.000000000e+00 2.200000000e-02 -4.200000000e-03
      vertex 0.000000000e+00 2.200000000e-02 4.200000000e-03
    endloop
  endfacet
  facet normal 1.000000000e+00 0.000000000e+00 0.000000000e+00
    outer loop
      vertex 0.000000000e+00 0.000000000e+00 -4.200000000e-03
      vertex 0.000000000e+00 2.200000000e-02 4.200000000e-03
      vertex 0.000000000e+00 0.000000000e+00 4.200000000e-03
    endloop
  endfacet
  facet normal -1.000000000e+00 0.000000000e+00 0.000000000e+00
    outer loop
      vertex 4.000000000e-02 0.000000000e+00 4.200000000e-03
      vertex 4.000000000e-02 2.200000000e-02 4.200000000e-03
      vertex 4.000000000e-02 2.200000000e-02 -4.200000000e-03
    endloop
  endfacet
  facet normal -1.000000000e+00 0.000000000e+00 0.000000000e+00
    outer loop
      vertex 4.000000000e-02 0.000000000e+00 4.200000000e-03
      vertex 4.000000000e-02 2.200000000e-02 -4.200000000e-03
      vertex 4.000000000e-02 0.000000000e+00 -4.200000000e-03
    endloop
  endfacet
  facet normal -0.000000000e+00 1.000000000e+00 0.000000000e+00
    outer loop
      vertex 0.000000000e+00 0.000000000e+00 4.200000000e-03
      vertex 4.000000000e-02 0.000000000e+00 4.200000000e-03
      vertex 4.000000000e-02 0.000000000e+00 -4.200000000e-03
    endloop
  endfacet
  facet normal 0.000000000e+00 1.000000000e+00 0.000000000e+00
    outer loop
      vertex 0.000000000e+00 0.000000000e+00 4.200000000e-03
      vertex 4.000000000e-02 0.000000000e+00 -4.200000000e-03
      vertex 0.000000000e+00 0.000000000e+00 -4.200000000e-03
    endloop
  endfacet
  facet normal 0.000000000e+00 0.000000000e+00 1.000000000e+00
    outer loop
      vertex 0.000000000e+00 0.000000000e+00 -4.200000000e-03
      vertex 4.000000000e-02 0.000000000e+00 -4.200000000e-03
      vertex 4.000000000e-02 2.200000000e-02 -4.200000000e-03
    endloop
  endfacet
  facet normal 0.000000000e+00 0.000000000e+00 1.000000000e+00
    outer loop
      vertex 0.000000000e+00 0.000000000e+00 -4.200000000e-03
      vertex 4.000000000e-02 2.200000000e-02 -4.200000000e-03
      vertex 0.000000000e+00 2.200000000e-02 -4.200000000e-03
    endloop
  endfacet
  facet normal 0.000000000e+00 0.000000000e+00 -1.000000000e+00
    outer loop
      vertex 4.000000000e-02 0.000000000e+00 4.200000000e-03
      vertex 0.000000000e+00 0.000000000e+00 4.200000000e-03
      vertex 0.000000000e+00 2.200000000e-02 4.200000000e-03
    endloop
  endfacet
  facet normal 0.000000000e+00 0.000000000e+00 -1.000000000e+00
    outer loop
      vertex 4.000000000e-02 0.000000000e+00 4.200000000e-03
      vertex 0.000000000e+00 2.200000000e-02 4.200000000e-03
      vertex 4.000000000e-02 2.200000000e-02 4.200000000e-03
    endloop
  endfacet
endsolid DieBox
