solid DieBottom
  facet normal -0.000000000e+00 1.000000000e+00 0.000000000e+00
    outer loop
      vertex 0.000000000e+00 0.000000000e+00 4.500000000e-03
      vertex 4.000000000e-02 0.000000000e+00 4.500000000e-03
      vertex 4.000000000e-02 0.000000000e+00 -4.500000000e-03
    endloop
  endfacet
  facet normal 0.000000000e+00 1.000000000e+00 0.000000000e+00
    outer loop
      vertex 0.000000000e+00 0.000000000e+00 4.500000000e-03
      vertex 4.000000000e-02 0.000000000e+00 -4.500000000e-03
      vertex 0.000000000e+00 0.000000000e+00 -4.500000000e-03
    endloop
  endfacet
endsolid DieBottom
