solid DieRight
  facet normal -1.000000000e+00 0.000000000e+00 0.000000000e+00
    outer loop
      vertex 4.000000000e-02 0.000000000e+00 4.500000000e-03
      vertex 4.000000000e-02 2.200000000e-02 4.500000000e-03
      vertex 4.000000000e-02 2.200000000e-02 -4.500000000e-03
    endloop
  endfacet
  facet normal -1.000000000e+00 0.000000000e+00 0.000000000e+00
    outer loop
      vertex 4.000000000e-02 0.000000000e+00 4.500000000e-03
      vertex 4.000000000e-02 2.200000000e-02 -4.500000000e-03
      vertex 4.000000000e-02 0.000000000e+00 -4.500000000e-03
    endloop
  endfacet
endsolid DieRight
